<svg xmlns="http://www.w3.org/2000/svg" viewBox="0 0 120 120" width="100%" height="100%"><rect width="120" height="120" rx="60" fill="#EFF3FF"/><path d="M25 110 C25 88 42 78 60 78 C78 78 95 88 95 110 Z" fill="#2563EB"/><circle cx="60" cy="54" r="26" fill="#FCD34D"/><path d="M34 50 C34 32 46 22 60 22 C74 22 86 32 86 50 C86 52 82 46 76 45 C68 44 65 38 60 38 C55 38 52 44 44 45 C38 46 34 52 34 50 Z" fill="#151B54"/><ellipse cx="51" cy="54" rx="3.5" ry="4" fill="#151B54"/><ellipse cx="69" cy="54" rx="3.5" ry="4" fill="#151B54"/><circle cx="52" cy="53" r="1" fill="#FFFFFF"/><circle cx="70" cy="53" r="1" fill="#FFFFFF"/><path d="M53 66 Q60 72 67 66" fill="none" stroke="#151B54" stroke-width="2.5" stroke-linecap="round"/><circle cx="43" cy="58" r="3" fill="#F87171" opacity="0.4"/><circle cx="77" cy="58" r="3" fill="#F87171" opacity="0.4"/></svg>